HIERARCHY
ROOT Pelvis
{
	OFFSET 0.000000 0.000000 0.000000
	CHANNELS 6 Xposition Yposition Zposition Xrotation Yrotation Zrotation
	JOINT LeftUpLeg_virtual
	{
		OFFSET 0.000000 0.000000 0.000000
		CHANNELS 3 Xrotation Yrotation Zrotation
		JOINT LeftUpLeg
		{
			OFFSET 8.479700 -4.795502 -0.379100
			CHANNELS 3 Xrotation Yrotation Zrotation
			JOINT LeftLeg
			{
				OFFSET 0.024144 -32.555107 0.112900
				CHANNELS 3 Xrotation Yrotation Zrotation
				JOINT LeftFoot
				{
					OFFSET -0.024144 -32.638630 -3.012600
					CHANNELS 3 Xrotation Yrotation Zrotation
					JOINT LeftToeBase
					{
						OFFSET 0.970200 -13.225400 11.864200
						CHANNELS 3 Xrotation Yrotation Zrotation
						End Site
						{
							OFFSET 0 0 0
						}
					}
				}
			}
		}
	}
	JOINT RightUpLeg_virtual
	{
		OFFSET 0.000000 0.000000 0.000000
		CHANNELS 3 Xrotation Yrotation Zrotation
		JOINT RightUpLeg
		{
			OFFSET -8.479700 -4.795502 -0.379100
			CHANNELS 3 Xrotation Yrotation Zrotation
			JOINT RightLeg
			{
				OFFSET -0.023144 -32.555092 0.112900
				CHANNELS 3 Xrotation Yrotation Zrotation
				JOINT RightFoot
				{
					OFFSET 0.023144 -32.638641 -3.012700
					CHANNELS 3 Xrotation Yrotation Zrotation
					JOINT RightToeBase
					{
						OFFSET -0.970200 -13.225400 11.864200
						CHANNELS 3 Xrotation Yrotation Zrotation
						End Site
						{
							OFFSET 0 0 0
						}
					}
				}
			}
		}
	}
	JOINT Hips_virtual
	{
		OFFSET 0.000000 0.000000 0.000000
		CHANNELS 3 Xrotation Yrotation Zrotation
		JOINT Hips
		{
			OFFSET -0.000000 -0.000000 -0.000000
			CHANNELS 3 Xrotation Yrotation Zrotation
			JOINT Spine
			{
				OFFSET 0.000000 7.722000 1.166200
				CHANNELS 3 Xrotation Yrotation Zrotation
				JOINT Spine1
				{
					OFFSET 0.000000 12.024101 0.248800
					CHANNELS 3 Xrotation Yrotation Zrotation
					JOINT Spine2
					{
						OFFSET 0.000000 11.502998 -0.491200
						CHANNELS 3 Xrotation Yrotation Zrotation
						JOINT Neck_virtual
						{
							OFFSET 0.000000 0.000000 0.000000
							CHANNELS 3 Xrotation Yrotation Zrotation
							JOINT Neck
							{
								OFFSET 0.000000 18.430702 -3.123100
								CHANNELS 3 Xrotation Yrotation Zrotation
								JOINT Head
								{
									OFFSET 0.000000 9.051102 1.034000
									CHANNELS 3 Xrotation Yrotation Zrotation
									End Site
									{
										OFFSET 0 0 0
									}
								}
							}
						}
						JOINT LeftShoulder_virtual
						{
							OFFSET 0.000000 0.000000 0.000000
							CHANNELS 3 Xrotation Yrotation Zrotation
							JOINT LeftShoulder
							{
								OFFSET 6.197800 13.665199 -4.064700
								CHANNELS 3 Xrotation Yrotation Zrotation
								JOINT LeftArm
								{
									OFFSET 7.778100 -0.187103 -1.709300
									CHANNELS 3 Xrotation Yrotation Zrotation
									JOINT LeftForeArm
									{
										OFFSET 22.049376 0.000000 0.000000
										CHANNELS 3 Xrotation Yrotation Zrotation
										JOINT LeftHand
										{
											OFFSET 23.009392 0.000000 0.000000
											CHANNELS 3 Xrotation Yrotation Zrotation
											End Site
											{
												OFFSET 0 0 0
											}
										}
									}
								}
							}
						}
						JOINT RightShoulder_virtual
						{
							OFFSET 0.000000 0.000000 0.000000
							CHANNELS 3 Xrotation Yrotation Zrotation
							JOINT RightShoulder
							{
								OFFSET -6.197800 13.665199 -4.064700
								CHANNELS 3 Xrotation Yrotation Zrotation
								JOINT RightArm
								{
									OFFSET -7.778100 -0.187103 -1.709300
									CHANNELS 3 Xrotation Yrotation Zrotation
									JOINT RightForeArm
									{
										OFFSET -22.049376 0.000000 0.000000
										CHANNELS 3 Xrotation Yrotation Zrotation
										JOINT RightHand
										{
											OFFSET -23.009392 0.000000 0.000000
											CHANNELS 3 Xrotation Yrotation Zrotation
											End Site
											{
												OFFSET 0 0 0
											}
										}
									}
								}
							}
						}
					}
				}
			}
		}
	}
}
MOTION
Frames: 9
Frame Time: 0.03333333
-0.010406 81.529907 0.565046 0.000000 0.000000 0.000000 1.892560 0.277637 -0.252885 -7.144209 -4.925108 9.593361 13.515538 0.058934 -1.542601 -5.999855 14.459022 -8.513170 0.000000 0.000000 0.000000 1.892560 0.277637 -0.252885 -6.687256 -4.967966 -8.697677 14.669491 0.237559 -0.282682 -8.505779 -11.420189 7.752546 0.000000 0.000000 0.000000 1.892560 0.277637 -0.252885 0.000000 0.000000 0.000000 2.070900 0.288489 0.927026 3.430439 -0.015269 0.185037 0.000000 0.000000 0.000000 3.430498 0.005499 0.178976 -3.527215 -0.012947 -0.020364 0.000000 0.000000 0.000000 3.430498 0.005499 0.178976 0.742836 8.952357 -13.053721 10.740848 -6.252034 -54.033835 -0.000001 -33.005912 -0.000029 0.000000 0.000000 0.000000 3.430498 0.005499 0.178976 1.078069 -8.352865 11.371666 3.407869 18.890954 61.317327 0.000003 23.538782 0.000003 0.000000 0.000000 0.000000 
0.464810 81.464615 0.576908 0.000000 0.000000 0.000000 1.971313 0.169680 -0.268007 -7.965920 -4.580707 9.348965 14.812520 -0.172984 -1.646940 -6.839577 13.464354 -8.080951 0.000000 0.000000 0.000000 1.971313 0.169680 -0.268007 -6.777492 -4.891985 -9.103963 14.583857 0.334416 -0.282545 -8.314159 -11.436577 8.171491 0.000000 0.000000 0.000000 1.971313 0.169680 -0.268007 0.000000 0.000000 0.000000 2.228330 0.157922 0.920206 3.366062 -0.047926 0.178463 0.000000 0.000000 0.000000 3.366262 -0.027679 0.173012 -3.461164 -0.005422 -0.020364 0.000000 0.000000 0.000000 3.366262 -0.027679 0.173012 0.736158 8.634892 -13.051692 10.465390 -6.468715 -54.238556 -0.000001 -32.925419 -0.000012 0.000000 0.000000 0.000000 3.366262 -0.027679 0.173012 1.102346 -8.042776 11.607334 3.214949 18.780592 60.984375 0.000006 23.113685 -0.000002 0.000000 0.000000 0.000000 
0.944123 81.396507 0.565735 0.000000 0.000000 0.000000 2.047154 0.066196 -0.280716 -8.774823 -4.209864 9.125992 16.029867 -0.445436 -1.756345 -7.604058 12.377963 -7.648898 0.000000 0.000000 0.000000 2.047154 0.066196 -0.280716 -6.899227 -4.817437 -9.518447 14.521786 0.429138 -0.282385 -8.108310 -11.447172 8.594069 0.000000 0.000000 0.000000 2.047154 0.066196 -0.280716 0.000000 0.000000 0.000000 2.391726 0.027637 0.906735 3.299833 -0.080446 0.171142 0.000000 0.000000 0.000000 3.300178 -0.060740 0.166296 -3.396148 0.002399 -0.020364 0.000000 0.000000 0.000000 3.300178 -0.060740 0.166296 0.729729 8.312045 -13.050095 10.192957 -6.689422 -54.453058 -0.000006 -32.826548 -0.000020 0.000000 0.000000 0.000000 3.300178 -0.060740 0.166296 1.124656 -7.724696 11.847046 3.010275 18.678488 60.639765 -0.000008 22.673028 0.000028 0.000000 0.000000 0.000000 
1.426302 81.324989 0.535479 0.000000 0.000000 0.000000 2.120598 -0.033808 -0.288194 -9.576116 -3.823808 8.915402 17.189981 -0.740873 -1.867771 -8.299011 11.227909 -7.219119 0.000000 0.000000 0.000000 2.120598 -0.033808 -0.288194 -7.050526 -4.741599 -9.942794 14.485856 0.523310 -0.282170 -7.894103 -11.453651 9.019277 0.000000 0.000000 0.000000 2.120598 -0.033808 -0.288194 0.000000 0.000000 0.000000 2.559939 -0.102334 0.884569 3.232090 -0.112856 0.163209 0.000000 0.000000 0.000000 3.232568 -0.093704 0.158966 -3.332027 0.010478 -0.020364 0.000000 0.000000 0.000000 3.232568 -0.093704 0.158966 0.723528 7.984863 -13.048741 9.926440 -6.917192 -54.675313 0.000008 -32.712863 0.000005 0.000000 0.000000 0.000000 3.232568 -0.093704 0.158966 1.144756 -7.400145 12.089762 2.794426 18.583895 60.286555 0.000000 22.219837 -0.000005 0.000000 0.000000 0.000000 
1.910654 81.250900 0.490318 0.000000 0.000000 0.000000 2.192164 -0.131105 -0.291024 -10.367080 -3.428611 8.713175 18.309792 -1.026405 -1.980561 -8.958848 10.025487 -6.789527 0.000000 0.000000 0.000000 2.192164 -0.131105 -0.291024 -7.219919 -4.664582 -10.374659 14.460081 0.617179 -0.281906 -7.668218 -11.458562 9.446538 0.000000 0.000000 0.000000 2.192164 -0.131105 -0.291024 0.000000 0.000000 0.000000 2.733406 -0.232063 0.854034 3.162680 -0.145143 0.154605 0.000000 0.000000 0.000000 3.163291 -0.126561 0.150962 -3.268992 0.018849 -0.018577 0.000000 0.000000 0.000000 3.163291 -0.126561 0.150962 0.717565 7.653006 -13.047679 9.666118 -7.152680 -54.905490 -0.000001 -32.583219 -0.000002 0.000000 0.000000 0.000000 3.163291 -0.126561 0.150962 1.162524 -7.068633 12.335784 2.566466 18.497479 59.924221 0.000000 21.753116 -0.000015 0.000000 0.000000 0.000000 
2.396927 81.176331 0.434462 0.000000 0.000000 0.000000 2.262373 -0.226343 -0.292376 -11.132585 -3.036930 8.515985 19.369663 -1.279990 -2.092246 -9.561268 8.798273 -6.365217 0.000000 0.000000 0.000000 2.262373 -0.226343 -0.292376 -7.388012 -4.584904 -10.808024 14.413955 0.707126 -0.281589 -7.419860 -11.462606 9.875871 0.000000 0.000000 0.000000 2.262373 -0.226343 -0.292376 0.000000 0.000000 0.000000 2.911671 -0.361608 0.818649 3.091728 -0.177317 0.145381 0.000000 0.000000 0.000000 3.092481 -0.159321 0.142335 -3.207297 0.027493 -0.017093 0.000000 0.000000 0.000000 3.092481 -0.159321 0.142335 0.711822 7.316949 -13.046785 9.411591 -7.394898 -55.143191 -0.000002 -32.439263 -0.000000 0.000000 0.000000 0.000000 3.092481 -0.159321 0.142335 1.177807 -6.730866 12.584602 2.326435 18.419010 59.554352 -0.000001 21.274262 0.000007 0.000000 0.000000 0.000000 
2.884458 81.102058 0.372011 0.000000 0.000000 0.000000 2.331742 -0.320312 -0.292969 -11.867173 -2.667734 8.314779 20.374490 -1.486800 -2.199733 -10.110936 7.587951 -5.947249 0.000000 0.000000 0.000000 2.331742 -0.320312 -0.292969 -7.543252 -4.498176 -11.239900 14.333133 0.788550 -0.279562 -7.146310 -11.465525 10.307468 0.000000 0.000000 0.000000 2.331742 -0.320312 -0.292969 0.000000 0.000000 0.000000 3.093850 -0.490967 0.779761 3.019495 -0.209397 0.135643 0.000000 0.000000 0.000000 3.020388 -0.191999 0.133191 -3.147349 0.036363 -0.015829 0.000000 0.000000 0.000000 3.020388 -0.191999 0.133191 0.706287 6.977574 -13.045911 9.162111 -7.642068 -55.387438 0.000000 -32.283975 -0.000011 0.000000 0.000000 0.000000 3.020388 -0.191999 0.133191 1.190444 -6.388126 12.835390 2.074938 18.347871 59.179457 0.000008 20.785813 -0.000022 0.000000 0.000000 0.000000 
3.372497 81.028809 0.307049 0.000000 0.000000 0.000000 2.400792 -0.413822 -0.293125 -12.563675 -2.343702 8.099260 21.326099 -1.634448 -2.299303 -10.612275 6.443274 -5.537298 0.000000 0.000000 0.000000 2.400792 -0.413822 -0.293125 -7.674347 -4.404735 -11.668249 14.202238 0.860859 -0.277049 -6.844468 -11.469304 10.740874 0.000000 0.000000 0.000000 2.400792 -0.413822 -0.293125 0.000000 0.000000 0.000000 3.279106 -0.620136 0.738317 2.946242 -0.241403 0.125495 0.000000 0.000000 0.000000 2.947264 -0.224611 0.123635 -3.089394 0.045429 -0.014028 0.000000 0.000000 0.000000 2.947264 -0.224611 0.123635 0.700952 6.635710 -13.044907 8.916984 -7.892501 -55.637430 0.000000 -32.120228 0.000000 0.000000 0.000000 0.000000 2.947264 -0.224611 0.123635 1.200302 -6.041645 13.087331 1.812704 18.283313 58.802021 0.000002 20.290206 -0.000013 0.000000 0.000000 0.000000 
3.860312 80.957260 0.243656 0.000000 0.000000 0.000000 2.470051 -0.507678 -0.293237 -13.214872 -2.089981 7.856412 22.226115 -1.711602 -2.386686 -11.071008 5.417280 -5.135818 0.000000 0.000000 0.000000 2.470051 -0.507678 -0.293237 -7.773203 -4.315209 -12.092568 14.007855 0.933236 -0.274216 -6.512483 -11.473476 11.174184 0.000000 0.000000 0.000000 2.470051 -0.507678 -0.293237 0.000000 0.000000 0.000000 3.466799 -0.749109 0.695214 2.872162 -0.273350 0.115018 0.000000 0.000000 0.000000 2.873324 -0.257173 0.113749 -3.032917 0.054683 -0.010930 0.000000 0.000000 0.000000 2.873324 -0.257173 0.113749 0.695803 6.292048 -13.043644 8.675609 -8.144786 -55.892357 0.000012 -31.950361 0.000010 0.000000 0.000000 0.000000 2.873324 -0.257173 0.113749 1.207312 -5.692444 13.339815 1.540419 18.224758 58.423867 -0.000009 19.789447 0.000039 0.000000 0.000000 0.000000 
